<svg width="142" height="40" viewBox="0 0 142 40" fill="none" xmlns="http://www.w3.org/2000/svg">
<g clip-path="url(#clip0_553_1060)">
<path opacity="0.5" d="M0.00882727 0.0343061C5.73207 7.32778e-06 11.4612 0.0514482 17.1815 0C17.8701 2.3266 18.4468 4.67893 19 7.03982C12.3388 8.88347 5.95206 11.5592 0 15C0.0353105 10.0124 0.0264825 5.02478 0.00882727 0.0343061Z" fill="#121212"/>
<path opacity="0.5" d="M22.3674 6C21.9682 3.98501 21.4728 1.99251 21 0C26.9849 0.0421546 32.9811 -0.0252944 38.966 0.0421528C38.966 1.4473 38.983 2.85246 39 4.25761C33.4114 4.27166 27.8484 4.95457 22.3674 6Z" fill="#121212"/>
<path opacity="0.5" d="M101.035 2.24581C100.693 -1.35173 105.487 0.550658 107.708 0.165002C108.269 9.53012 107.795 18.9355 107.945 28.3237C107.786 31.7773 108.287 35.3202 107.726 38.7565C105.601 38.8314 103.074 39.4214 101.185 38.4371C100.825 26.3954 101.116 14.3077 101.035 2.24581Z" fill="#121212"/>
<path opacity="0.5" d="M23 9.71071C28.2503 8.50223 33.6202 7.93035 39 8.00676C38.9434 15.6716 38.9661 23.3336 38.983 30.9984C33.6831 31.0337 28.3951 30.477 23.2121 29.3381C23.9871 22.8247 24.0097 16.2066 23 9.71071Z" fill="#121212"/>
<path opacity="0.5" d="M50.0776 10.5011C55.2602 7.67876 62.2597 8.96614 66.2459 13.2739C64.976 14.9425 63.4125 16.3703 61.6306 17.4885C59.1524 14.8962 53.9697 13.8128 52.0413 17.6079C54.1226 21.7526 59.6257 21.2079 63.0593 23.6953C67.5864 26.0836 68.2067 32.6079 64.9524 36.2836C63.4826 38.238 61.0779 38.9778 58.9349 39.9244C54.2314 40.3351 49.0692 39.0972 45.7474 35.5904C43.3633 33.5516 47.3407 31.7167 48.5283 30.1992C50.8948 32.3662 53.7875 34.3351 57.224 33.6361C59.711 33.8924 61.9598 30.4118 59.5228 28.8011C56.0804 26.6166 51.568 26.4302 48.5048 23.5584C44.4392 20.1739 45.4475 12.9244 50.0776 10.5011Z" fill="#121212"/>
<path opacity="0.5" d="M74.0155 12.4833C79.3656 7.39874 88.8847 7.93487 93.5514 13.7362C96.4109 17.3027 97.5203 22.227 96.774 26.7404C89.7054 26.8162 82.6397 26.7404 75.5796 26.7754C76.4375 29.3424 77.9587 31.8687 80.4951 32.9876C83.9693 34.5406 88.0498 33.4917 90.9121 31.1199C92.2446 32.3582 93.2998 33.8501 94.3435 35.3448C91.261 39.1503 85.9624 40.2983 81.3214 39.937C77.3782 38.7511 73.4665 36.6531 71.3476 32.906C67.4073 26.6064 68.5139 17.4775 74.0155 12.4833ZM75.4967 21.3499C80.5551 21.4432 85.6049 21.4781 90.6519 21.3325C89.5624 18.0486 86.9517 14.7357 83.2001 15.0183C79.4256 14.7444 76.7377 18.0748 75.5053 21.3499H75.4967Z" fill="#121212"/>
<path opacity="0.5" d="M113.598 15.5971C116.833 10.5856 123.414 7.75666 129.228 9.53245C131.622 10.1848 133.181 12.1654 134.569 14.0729C135.069 12.5487 135.56 11.0157 136.092 9.49735C138.065 9.57341 140.036 9.66995 142 9.92447V38.9838C139.941 39.1388 137.883 39.2061 135.842 39.25C135.377 38.033 134.921 36.8159 134.472 35.5989C131.766 38.4601 127.823 40.5255 123.794 39.8819C120.221 39.1798 116.792 37.3455 114.492 34.5018C110.181 29.271 109.837 21.2112 113.598 15.5971ZM122.614 16.1822C118.247 18.1686 116.715 23.8061 118.341 28.0745C119.659 31.9566 124.188 34.3643 128.158 33.1298C132.981 31.983 135.718 26.2489 134.101 21.6997C132.984 16.9253 127.102 13.8856 122.614 16.1968V16.1822Z" fill="#121212"/>
<path opacity="0.5" d="M0 20.0176C6.02112 16.0708 12.5768 13.0331 19.461 11C20.0882 16.9795 20.2298 23.0117 19.5535 29C12.6455 26.9521 6.1363 23.794 0 20.0176Z" fill="#121212"/>
<path opacity="0.5" d="M0.0521559 24C6.0194 27.498 12.3805 30.2645 19 32.2405C18.4813 34.4882 17.9568 36.7359 17.4034 38.9865C11.6081 38.9865 5.81272 39.0303 0 38.9602C0.127497 33.9657 0.0434629 28.9828 0.0521559 24Z" fill="#121212"/>
<path opacity="0.5" d="M22.3773 33C27.8293 34.2219 33.4017 34.6214 38.9656 34.864C38.9656 36.2339 38.9828 37.6008 39 38.9707C33 39.0239 27 38.9884 21 38.9884C21.5308 37.0002 22.0014 34.9971 22.3773 33Z" fill="#121212"/>
</g>
<defs>
<clipPath id="clip0_553_1060">
<rect width="142" height="40" fill="white"/>
</clipPath>
</defs>
</svg>
