<svg width="225" height="30" viewBox="0 0 225 30" fill="none" xmlns="http://www.w3.org/2000/svg">
<path opacity="0.5" d="M13.4094 8.05451L17.5953 19.7259H9.22305L13.4094 8.05451ZM11.5375 0.209613L0 29.5062H5.70234L7.5707 24.2485H19.2441L21.1574 29.5062H26.8148L15.4133 0.209997L11.5375 0.209613ZM37.5809 14.446C39.8988 14.446 41.5438 15.8809 42.7238 17.6067L46.6074 15.4283C44.8754 12.3118 41.4191 10.2179 37.5809 10.2179C31.9691 10.2179 27.3328 14.6487 27.3328 20.1086C27.3328 25.5693 31.9691 29.9996 37.5809 29.9996C41.4191 29.9996 44.8754 27.9058 46.6074 24.7893L42.7238 22.6147C41.5398 24.3366 39.8988 25.7716 37.5809 25.7716C34.4195 25.7716 32.0145 23.1447 32.0145 20.1086C32.0145 17.0732 34.4195 14.446 37.5809 14.446ZM75.8988 18.2213C76.5719 15.7598 78.6406 14.284 81.1285 14.284C83.6168 14.284 85.5984 15.8002 86.2754 18.2213H75.8988ZM81.125 10.2179C75.5133 10.2179 71.0434 14.6487 71.0434 20.1086C71.0434 25.5693 75.6797 29.9996 81.2914 29.9996C84.7098 29.9996 87.7008 28.4393 89.5578 25.9374L86.0559 23.3947C84.7477 24.9108 83.3559 25.8562 81.2875 25.8562C78.5914 25.8562 76.4813 24.0939 75.8496 21.7093H91.0324C91.1156 21.3416 91.1988 20.6459 91.1988 20.1086C91.2062 14.6483 86.7367 10.2179 81.125 10.2179ZM58.5605 10.2179C53.0094 10.2179 49.0312 14.6487 49.0312 20.1086V29.5065H53.6633V20.1086C53.6633 17.0732 55.4332 14.446 58.5641 14.446C61.6914 14.446 63.4613 17.0729 63.4613 20.1086V29.5065H68.0938V20.1086C68.0898 14.6483 64.1078 10.2179 58.5605 10.2179ZM222.512 19.369C221.668 18.8355 220.572 18.4678 219.35 18.2578C217.959 18.0117 217.07 17.8494 216.526 17.4779C215.977 17.1098 215.807 16.6167 215.807 16.0429C215.807 14.8948 216.775 13.9491 218.209 13.9491C219.642 13.9491 220.485 14.7294 220.867 16.3298L225 15.594C224.455 12.2675 222.088 10.2179 218.254 10.2179C214.332 10.2179 211.507 12.9264 211.507 15.9617C211.507 18.1367 212.309 19.5717 213.576 20.477C214.503 21.1317 215.686 21.544 217.203 21.7866C218.087 21.9116 219.014 22.0774 219.604 22.3609C220.447 22.7728 220.7 23.4278 220.7 24.127C220.7 25.3193 219.645 26.2612 218.212 26.2612C216.779 26.2612 215.724 25.4808 215.637 23.5932H211.421V23.8397C211.421 28.1927 214.96 29.9958 218.209 29.9958C221.498 29.9958 224.996 27.8212 224.996 24.1266C225 21.9963 224.115 20.3959 222.512 19.369ZM184.859 2.41035H180.182V7.2526H184.859V2.41035ZM184.863 10.7076H180.182V29.5027H184.863V10.7076ZM127.49 3.24188H122.809V10.711H120.785V14.939H122.809V23.7628C122.809 27.6631 125.72 29.9996 129.725 29.9996C130.232 29.9996 130.78 29.9592 131.158 29.8781V25.772H130.78C128.711 25.772 127.49 24.8704 127.49 22.6959V14.939H131.158V10.7114H127.49V3.24188ZM115.211 14.2806C113.737 13.3383 112.092 13.0075 110.617 12.7202C109.267 12.4702 107.875 12.3083 106.609 11.4875C105.682 10.8729 105.092 9.88718 105.092 8.57335C105.092 6.358 107.073 4.5111 109.437 4.5111C113.57 4.5111 113.948 8.7795 113.948 8.7795L118.842 7.95874C118.588 5.53454 116.69 0 109.437 0C104.207 0 100.074 3.8561 100.074 8.57681C100.074 11.9037 101.761 14.6114 104.668 15.9217C106.567 16.7825 107.959 16.9482 109.267 17.2352C110.7 17.5663 111.668 17.7282 112.428 18.3428C113.313 19.0417 113.778 20.1455 113.778 21.2163C113.778 23.5124 111.838 25.2785 109.433 25.2785C108.337 25.2785 105.171 24.7854 105.171 20.6386H100.112C100.112 28.3954 107.028 29.79 109.433 29.79C114.621 29.79 118.879 25.9743 118.879 21.2128C118.879 18.2213 117.571 15.8002 115.211 14.2806ZM198.552 25.7716C195.391 25.7716 192.982 23.1447 192.982 20.1086C192.982 17.0732 195.387 14.446 198.552 14.446C201.713 14.446 204.118 17.0729 204.118 20.1086C204.122 23.1443 201.713 25.7716 198.552 25.7716ZM198.552 10.2179C192.94 10.2179 188.304 14.6487 188.304 20.1086C188.304 25.5693 192.944 29.9996 198.552 29.9996C204.16 29.9996 208.8 25.5693 208.8 20.1086C208.8 14.6483 204.164 10.2179 198.552 10.2179ZM149.275 20.1094C149.275 23.1451 147.298 25.772 144.288 25.772H144.193C141.187 25.772 139.205 23.1451 139.205 20.1094V10.7114H134.754V20.109C134.754 25.5658 138.857 29.9996 144.193 29.9996H144.288C149.623 29.9996 153.726 25.5693 153.726 20.109V10.7114H149.275V20.1094ZM166.304 25.787C163.218 25.787 160.714 23.2447 160.714 20.1094C160.714 16.9748 163.218 14.4317 166.304 14.4317C169.389 14.4317 171.893 16.9744 171.893 20.1094C171.893 23.2443 169.389 25.787 166.304 25.787ZM171.87 12.1395C169.62 10.1745 166.304 10.2187 166.304 10.2187C160.695 10.2187 156.021 14.649 156.021 20.1094C156.021 25.5662 160.695 30 166.304 30C172.089 30 176.551 25.787 176.551 20.1132V0.191921H171.87V12.1395Z" fill="#121212"/>
</svg>
