<svg width="80" height="54" viewBox="0 0 80 54" fill="none" xmlns="http://www.w3.org/2000/svg">
<path d="M69.4251 22.2992C69.4621 21.7965 69.4815 21.2887 69.4815 20.7767C69.4815 9.49949 60.3396 0.357422 49.0624 0.357422C42.1915 0.357422 36.1133 3.75117 32.4124 8.95371C31.2642 8.69491 30.0717 8.55398 28.8458 8.55398C20.9772 8.55398 14.4245 14.1756 12.9772 21.6209C5.57618 23.1033 0 29.6365 0 37.4736C0 46.4035 7.23916 53.6426 16.169 53.6426H63.831C72.7611 53.6426 80 46.4035 80 37.4736C80 30.5102 75.5978 24.576 69.4251 22.2992Z" fill="#5E96DC"/>
<path d="M46.0442 43.9492L46.0458 26.4366L51.9728 26.4368L40.8927 15.3564L29.8125 26.4366H35.7402V43.9492H46.0442Z" fill="white"/>
</svg>
