<svg width="242" height="181" viewBox="0 0 242 181" fill="none" xmlns="http://www.w3.org/2000/svg">
<path d="M188.42 3.85036C179.066 4.98317 169.712 9.51442 163.042 16.1435C160.987 18.1574 153.269 28.4366 138.713 48.4077C126.968 64.5188 117.195 77.6091 117.027 77.5672C116.314 77.3154 98.864 49.9601 97.1022 46.3519C92.8656 37.6669 93.7045 33.4713 99.8707 32.2127C101.381 31.919 102.555 31.4994 102.513 31.2896C102.429 31.0379 94.3757 30.8281 81.6239 30.7442C64.216 30.6603 60.8603 30.7442 60.8603 31.2477C60.8603 31.6253 61.7412 31.877 63.9224 32.0868C69.0818 32.5903 72.2698 34.5622 76.4645 39.7648C78.8135 42.7436 108.428 86.9653 108.931 88.3499C109.183 88.9373 56.2462 161.899 53.1002 165.297C51.1706 167.395 47.3115 170.248 44.2914 171.759C41.397 173.185 38.3349 174.066 33.6788 174.654C27.5127 175.493 29.1067 176.038 37.7896 176.038C45.4659 175.996 45.5917 175.996 49.4927 174.654C57.3368 171.926 63.2512 168.108 68.4107 162.486C70.0047 160.724 80.0299 147.34 90.6844 132.823C101.339 118.265 111.364 104.629 113 102.447L115.894 98.5033L127.01 115.244C133.134 124.432 138.965 133.662 139.972 135.76C143.747 143.522 143.076 147.298 137.707 148.683C136.49 148.976 135.441 149.396 135.4 149.648C135.358 149.857 143.034 150.067 154.947 150.151C170.215 150.235 174.578 150.109 174.452 149.732C174.326 149.438 172.69 148.976 170.635 148.683C168.663 148.431 166.23 147.76 165.307 147.298C163.084 146.165 160.274 143.564 157.967 140.585C156.205 138.278 124.326 89.3149 123.906 88.3079C123.738 87.8045 167.027 28.4366 173.361 20.5489C177.598 15.2624 182.967 10.2277 186.197 8.50748C193.915 4.39578 201.424 3.76645 207.548 6.78728C213.924 9.89203 217.321 16.0176 218.076 25.7095C218.244 28.1849 218.538 29.6114 218.915 29.7373C219.293 29.8631 219.419 27.5975 219.419 19.4161V8.96899L216.986 7.87814C209.519 4.64752 196.6 2.80145 188.42 3.85036Z" fill="#FBF9FA"/>
<path d="M173.277 35.1078C171.389 37.751 169.879 39.9747 169.963 40.0586C170.047 40.1425 173.906 42.8697 178.52 46.1842C189.846 54.3237 193.789 57.5123 198.906 62.8827C206.541 70.8963 209.687 77.4834 210.064 86.462C210.484 95.9441 208.093 102.909 202.472 108.447C197.942 112.936 193.328 115.328 186.113 116.964C181.624 117.971 172.732 117.845 168.495 116.712C159.602 114.321 152.471 108.909 148.487 101.398C146.221 97.2028 145.55 94.3498 145.299 88.3501C145.089 83.651 145.215 82.3503 145.97 79.3295C147.102 74.6724 150.039 68.8824 152.933 65.5679C155.366 62.7569 155.617 62.1275 154.611 61.2884C153.604 60.4493 152.43 61.2464 149.661 64.6449C141.272 75.1758 139.049 89.315 143.872 101.818C148.696 114.321 161.49 123.048 176.633 124.181C195.173 125.565 211.49 117.887 217.908 104.713C220.886 98.6713 222.019 93.3009 222.019 85.8327C221.977 76.2667 219.376 68.5468 213.126 59.6521C210.274 55.6663 203.563 48.8694 198.193 44.6318C193.747 41.1075 177.807 30.2409 177.094 30.2409C176.884 30.2409 175.165 32.4226 173.277 35.1078Z" fill="#FBF9FA"/>
</svg>
