<svg width="60" height="60" viewBox="0 0 60 60" fill="none" xmlns="http://www.w3.org/2000/svg">
<circle cx="30" cy="30" r="30" fill="#710916"/>
<g clip-path="url(#clip0_553_956)">
<path d="M29.9929 15.2435C34.8 15.2435 35.3643 15.2649 37.2643 15.3507C39.0214 15.4293 39.9714 15.7222 40.6071 15.9722C41.45 16.3009 42.05 16.6866 42.6786 17.3153C43.3071 17.944 43.7 18.5442 44.0214 19.3872C44.2643 20.023 44.5643 20.9732 44.6429 22.7307C44.7286 24.6311 44.75 25.1955 44.75 30.0036C44.75 34.8117 44.7286 35.3761 44.6429 37.2764C44.5643 39.0339 44.2714 39.9841 44.0214 40.62C43.6929 41.463 43.3071 42.0631 42.6786 42.6918C42.05 43.3205 41.45 43.7134 40.6071 44.0349C39.9714 44.2778 39.0214 44.5779 37.2643 44.6565C35.3643 44.7422 34.8 44.7636 29.9929 44.7636C25.1857 44.7636 24.6214 44.7422 22.7214 44.6565C20.9643 44.5779 20.0143 44.285 19.3786 44.0349C18.5357 43.7063 17.9357 43.3205 17.3071 42.6918C16.6786 42.0631 16.2857 41.463 15.9643 40.62C15.7214 39.9841 15.4214 39.0339 15.3429 37.2764C15.2571 35.3761 15.2357 34.8117 15.2357 30.0036C15.2357 25.1955 15.2571 24.6311 15.3429 22.7307C15.4214 20.9732 15.7143 20.023 15.9643 19.3872C16.2929 18.5442 16.6786 17.944 17.3071 17.3153C17.9357 16.6866 18.5357 16.2937 19.3786 15.9722C20.0143 15.7293 20.9643 15.4293 22.7214 15.3507C24.6214 15.2578 25.1929 15.2435 29.9929 15.2435ZM29.9929 12C25.1071 12 24.4929 12.0214 22.5714 12.1072C20.6571 12.1929 19.35 12.5001 18.2071 12.943C17.0214 13.4003 16.0214 14.0218 15.0214 15.022C14.0214 16.0222 13.4071 17.0296 12.9429 18.2084C12.5 19.3515 12.1929 20.6589 12.1071 22.5807C12.0214 24.4953 12 25.1097 12 29.9964C12 34.8831 12.0214 35.4975 12.1071 37.4193C12.1929 39.334 12.5 40.6414 12.9429 41.7916C13.4 42.9776 14.0214 43.9778 15.0214 44.978C16.0214 45.9782 17.0286 46.5926 18.2071 47.057C19.35 47.4999 20.6571 47.8071 22.5786 47.8928C24.5 47.9786 25.1071 48 30 48C34.8929 48 35.5 47.9786 37.4214 47.8928C39.3357 47.8071 40.6429 47.4999 41.7929 47.057C42.9786 46.5997 43.9786 45.9782 44.9786 44.978C45.9786 43.9778 46.5929 42.9704 47.0571 41.7916C47.5 40.6485 47.8071 39.3411 47.8929 37.4193C47.9786 35.4975 48 34.8903 48 29.9964C48 25.1026 47.9786 24.4953 47.8929 22.5735C47.8071 20.6589 47.5 19.3515 47.0571 18.2012C46.6 17.0153 45.9786 16.0151 44.9786 15.0149C43.9786 14.0147 42.9714 13.4003 41.7929 12.9359C40.65 12.493 39.3429 12.1858 37.4214 12.1C35.4929 12.0214 34.8786 12 29.9929 12Z" fill="#FBF9FA"/>
<path d="M29.9929 15.2435C34.8 15.2435 35.3643 15.2649 37.2643 15.3507C39.0214 15.4293 39.9714 15.7222 40.6071 15.9722C41.45 16.3009 42.05 16.6866 42.6786 17.3153C43.3071 17.944 43.7 18.5442 44.0214 19.3872C44.2643 20.023 44.5643 20.9732 44.6429 22.7307C44.7286 24.6311 44.75 25.1955 44.75 30.0036C44.75 34.8117 44.7286 35.3761 44.6429 37.2764C44.5643 39.0339 44.2714 39.9841 44.0214 40.62C43.6929 41.463 43.3071 42.0631 42.6786 42.6918C42.05 43.3205 41.45 43.7134 40.6071 44.0349C39.9714 44.2778 39.0214 44.5779 37.2643 44.6565C35.3643 44.7422 34.8 44.7636 29.9929 44.7636C25.1857 44.7636 24.6214 44.7422 22.7214 44.6565C20.9643 44.5779 20.0143 44.285 19.3786 44.0349C18.5357 43.7063 17.9357 43.3205 17.3071 42.6918C16.6786 42.0631 16.2857 41.463 15.9643 40.62C15.7214 39.9841 15.4214 39.0339 15.3429 37.2764C15.2571 35.3761 15.2357 34.8117 15.2357 30.0036C15.2357 25.1955 15.2571 24.6311 15.3429 22.7307C15.4214 20.9732 15.7143 20.023 15.9643 19.3872C16.2929 18.5442 16.6786 17.944 17.3071 17.3153C17.9357 16.6866 18.5357 16.2937 19.3786 15.9722C20.0143 15.7293 20.9643 15.4293 22.7214 15.3507C24.6214 15.2578 25.1929 15.2435 29.9929 15.2435Z" fill="#FBF9FA"/>
<path d="M30 21C25.034 21 21 25.027 21 30C21 34.973 25.027 39 30 39C34.973 39 39 34.973 39 30C39 25.027 34.973 21 30 21ZM30 35.8354C26.7728 35.8354 24.1577 33.2202 24.1577 29.993C24.1577 26.7658 26.7728 24.1507 30 24.1507C33.2272 24.1507 35.8424 26.7658 35.8424 29.993C35.8424 33.2202 33.2272 35.8354 30 35.8354Z" fill="#710916"/>
<path d="M38.9992 21.0004C39.9933 21.0004 40.7992 20.1945 40.7992 19.2004C40.7992 18.2063 39.9933 17.4004 38.9992 17.4004C38.0051 17.4004 37.1992 18.2063 37.1992 19.2004C37.1992 20.1945 38.0051 21.0004 38.9992 21.0004Z" fill="#710916"/>
</g>
<defs>
<clipPath id="clip0_553_956">
<rect width="36" height="36" fill="white" transform="translate(12 12)"/>
</clipPath>
</defs>
</svg>
