<svg width="112" height="84" viewBox="0 0 112 84" fill="none" xmlns="http://www.w3.org/2000/svg">
<path d="M81.4554 4.33152C77.308 4.83723 73.1607 6.86008 70.2036 9.81945C69.2923 10.7185 65.8703 15.3074 59.4168 24.2229C54.2094 31.4153 49.8761 37.2591 49.8017 37.2403C49.4855 37.128 41.7488 24.9159 40.9677 23.3051C39.0893 19.428 39.4613 17.555 42.1951 16.9931C42.8647 16.862 43.3854 16.6747 43.3668 16.581C43.3296 16.4686 39.7588 16.375 34.1051 16.3375C26.3869 16.3001 24.8991 16.3375 24.8991 16.5623C24.8991 16.7309 25.2896 16.8432 26.2567 16.9369C28.5443 17.1617 29.9577 18.042 31.8175 20.3645C32.859 21.6943 45.9891 41.4359 46.2123 42.054C46.3239 42.3162 22.8533 74.8879 21.4585 76.405C20.603 77.3415 18.892 78.6152 17.5529 79.2895C16.2696 79.9263 14.912 80.3196 12.8476 80.5819C10.1137 80.9565 10.8205 81.2 14.6702 81.2C18.0736 81.1812 18.1294 81.1812 19.859 80.5819C23.3369 79.3644 25.9592 77.66 28.2467 75.1501C28.9534 74.3635 33.3983 68.3885 38.1222 61.9079C42.8461 55.4086 47.291 49.3213 48.0163 48.3473L49.2996 46.5867L54.228 54.06C56.9433 58.1619 59.5284 62.2825 59.9748 63.219C61.6486 66.6841 61.351 68.3698 58.9705 68.9879C58.4311 69.119 57.9662 69.3063 57.9476 69.4187C57.929 69.5124 61.3324 69.606 66.6142 69.6435C73.3839 69.6809 75.318 69.6247 75.2623 69.4562C75.2065 69.3251 74.4811 69.119 73.5698 68.9879C72.6957 68.8755 71.6171 68.5758 71.2079 68.3698C70.2222 67.8641 68.9762 66.7028 67.9533 65.373C67.1722 64.3428 53.0377 42.4848 52.8518 42.0353C52.7774 41.8105 71.9704 15.3074 74.7787 11.7861C76.6571 9.42612 79.0376 7.1785 80.4697 6.41056C83.8917 4.57501 87.2207 4.29406 89.936 5.64263C92.7629 7.02866 94.2693 9.76326 94.6041 14.0899C94.6785 15.195 94.8087 15.8318 94.976 15.888C95.1434 15.9442 95.1992 14.9328 95.1992 11.2804V6.61659L94.1205 6.12962C90.8101 4.68739 85.082 3.86327 81.4554 4.33152Z" fill="#710916"/>
<path d="M74.603 18.9722C73.7511 20.152 73.0697 21.1445 73.1075 21.1819C73.1454 21.2194 74.8869 22.4366 76.9692 23.916C82.0802 27.5489 83.8596 28.9721 86.169 31.3691C89.6142 34.9458 91.0339 37.8859 91.2043 41.8933C91.3936 46.1255 90.3146 49.2341 87.778 51.706C85.7336 53.7097 83.6513 54.7771 80.3954 55.5074C78.37 55.9569 74.3569 55.9007 72.445 55.3951C68.4319 54.3277 65.2139 51.912 63.4156 48.5599C62.3934 46.6873 62.0905 45.4139 61.9769 42.736C61.8823 40.6387 61.939 40.0581 62.2798 38.7098C62.7909 36.6312 64.116 34.047 65.4221 32.5676C66.52 31.3129 66.6336 31.032 66.1793 30.6575C65.725 30.283 65.1949 30.6388 63.9456 32.1556C60.1597 36.8559 59.1564 43.1667 61.3333 48.7472C63.5102 54.3277 69.2837 58.2228 76.1173 58.7284C84.4843 59.3464 91.8479 55.9194 94.7441 50.0393C96.0881 47.3427 96.5992 44.9457 96.5992 41.6124C96.5803 37.3428 95.4067 33.8972 92.5861 29.9272C91.2989 28.1481 88.2702 25.1145 85.8472 23.2231C83.8406 21.6501 76.6474 16.7999 76.3256 16.7999C76.2309 16.7999 75.4548 17.7737 74.603 18.9722Z" fill="#710916"/>
</svg>
