<svg width="12" height="12" viewBox="0 0 12 12" fill="none" xmlns="http://www.w3.org/2000/svg">
<path fill-rule="evenodd" clip-rule="evenodd" d="M9.17824 5.05471C9.17824 7.28767 7.35388 9.10942 5.08912 9.10942C2.82435 9.10942 1 7.28767 1 5.05471C1 2.82174 2.82435 1 5.08912 1C7.35388 1 9.17824 2.82174 9.17824 5.05471ZM7.71897 9.38307C6.95148 9.84409 6.0515 10.1094 5.08912 10.1094C2.27848 10.1094 0 7.84635 0 5.05471C0 2.26307 2.27848 0 5.08912 0C7.89976 0 10.1782 2.26307 10.1782 5.05471C10.1782 6.52859 9.54313 7.85513 8.5299 8.77908L11.0386 11.2708L10.3339 11.9803L7.71897 9.38307Z" fill="#A7A7A7"/>
</svg>
